<svg width="125" height="35" viewBox="0 0 125 35" fill="none" xmlns="http://www.w3.org/2000/svg">
<path d="M33.1222 14H34.1165L36.478 5.36435H36.5426L38.9041 14H39.8984L42.6875 3.81818H41.7379L39.4311 12.5732H39.3516L37.0447 3.81818H35.9709L33.6641 12.5732H33.5845L31.2777 3.81818H30.3331L33.1222 14ZM46.5604 14.1591C48.0916 14.1591 49.1207 13.3288 49.4688 12.3693L48.6286 12.0959C48.3352 12.782 47.6442 13.3487 46.5604 13.3487C44.9993 13.3487 44.0099 12.2102 43.9702 10.4453H49.6577V10.0078C49.6577 7.45739 48.0817 6.25923 46.4261 6.25923C44.4474 6.25923 43.0803 7.91477 43.0803 10.2266C43.0803 12.5433 44.4226 14.1591 46.5604 14.1591ZM43.9751 9.66477C44.0696 8.2429 45.0291 7.06463 46.4261 7.06463C47.7933 7.06463 48.7528 8.19318 48.7528 9.66477H43.9751ZM51.7917 14H52.6518V12.5831H52.7612C53.0694 13.2841 53.7157 14.1591 55.1078 14.1591C56.9821 14.1591 58.2498 12.5732 58.2498 10.2017C58.2498 7.85014 56.9771 6.25923 55.0929 6.25923C53.6958 6.25923 53.0645 7.13423 52.7612 7.82031H52.6816V3.81818H51.7917V14ZM52.6667 10.1868C52.6667 8.35724 53.5069 7.06463 54.9984 7.06463C56.5297 7.06463 57.3599 8.42685 57.3599 10.1868C57.3599 11.9666 56.5197 13.3487 54.9984 13.3487C53.5169 13.3487 52.6667 12.0312 52.6667 10.1868ZM65.3244 8.03906C64.9515 6.93537 64.1362 6.25923 62.7392 6.25923C61.198 6.25923 60.0794 7.1392 60.0794 8.39702C60.0794 9.42116 60.7008 10.1172 62.0282 10.4354L63.2761 10.7337C64.1163 10.9325 64.519 11.3651 64.519 11.9766C64.519 12.772 63.7583 13.3636 62.585 13.3636C61.541 13.3636 60.8897 12.8913 60.676 11.9865L59.8258 12.1953C60.0943 13.468 61.1035 14.1591 62.6 14.1591C64.2804 14.1591 65.4338 13.2344 65.4338 11.9368C65.4338 10.9176 64.7924 10.2365 63.5147 9.9233L62.3613 9.63991C61.4118 9.40128 60.9693 9.01847 60.9693 8.35724C60.9693 7.58168 61.71 7.03977 62.7392 7.03977C63.7683 7.03977 64.2754 7.58168 64.514 8.26776L65.3244 8.03906ZM67.3814 14H68.2713V6.36364H67.3814V14ZM67.8338 5.05114C68.1967 5.05114 68.5 4.76278 68.5 4.41477C68.5 4.06676 68.1967 3.77841 67.8338 3.77841C67.4709 3.77841 67.1726 4.06676 67.1726 4.41477C67.1726 4.76278 67.4709 5.05114 67.8338 5.05114ZM73.6195 6.36364H72.0037V4.53409H71.1138V6.36364H69.9753V7.13423H71.1138V12.2152C71.1138 13.4631 72.0982 14.1143 73.0776 14.1143C73.4455 14.1143 73.6941 14.0447 73.8631 13.9801L73.6742 13.1797C73.5499 13.2145 73.3908 13.2493 73.1571 13.2493C72.5556 13.2493 72.0037 12.9659 72.0037 12.0064V7.13423H73.6195V6.36364ZM78.6346 14.1591C80.1658 14.1591 81.195 13.3288 81.543 12.3693L80.7028 12.0959C80.4094 12.782 79.7184 13.3487 78.6346 13.3487C77.0735 13.3487 76.0842 12.2102 76.0444 10.4453H81.7319V10.0078C81.7319 7.45739 80.1559 6.25923 78.5004 6.25923C76.5217 6.25923 75.1545 7.91477 75.1545 10.2266C75.1545 12.5433 76.4968 14.1591 78.6346 14.1591ZM76.0494 9.66477C76.1438 8.2429 77.1033 7.06463 78.5004 7.06463C79.8675 7.06463 80.8271 8.19318 80.8271 9.66477H76.0494ZM31.3523 32H32.2124V30.5831H32.3217C32.63 31.2841 33.2763 32.1591 34.6683 32.1591C36.5426 32.1591 37.8104 30.5732 37.8104 28.2017C37.8104 25.8501 36.5376 24.2592 34.6534 24.2592C33.2564 24.2592 32.625 25.1342 32.3217 25.8203H32.2422V21.8182H31.3523V32ZM32.2273 28.1868C32.2273 26.3572 33.0675 25.0646 34.5589 25.0646C36.0902 25.0646 36.9205 26.4268 36.9205 28.1868C36.9205 29.9666 36.0803 31.3487 34.5589 31.3487C33.0774 31.3487 32.2273 30.0312 32.2273 28.1868ZM40.0973 34.8636C41.0518 34.8636 41.7528 34.3168 42.1605 33.2081L45.397 24.3786L44.4325 24.3636L42.1655 30.8317H42.0959L39.8288 24.3636H38.8693L41.6783 32.0746L41.3999 32.8501C40.9773 34.0036 40.3807 34.2074 39.4808 33.924L39.2422 34.7045C39.4212 34.7891 39.7493 34.8636 40.0973 34.8636ZM51.2598 32L52.3485 28.9325H56.6241L57.7129 32H58.6873L54.9835 21.8182H53.9892L50.2853 32H51.2598ZM52.6468 28.0973L54.4515 23.0263H54.5211L56.3258 28.0973H52.6468ZM61.1333 21.8182H60.2484V32H61.1333V21.8182ZM63.6589 32H64.519V30.5831H64.6284C64.9366 31.2841 65.5829 32.1591 66.975 32.1591C68.8493 32.1591 70.117 30.5732 70.117 28.2017C70.117 25.8501 68.8443 24.2592 66.96 24.2592C65.563 24.2592 64.9316 25.1342 64.6284 25.8203H64.5488V21.8182H63.6589V32ZM64.5339 28.1868C64.5339 26.3572 65.3741 25.0646 66.8656 25.0646C68.3968 25.0646 69.2271 26.4268 69.2271 28.1868C69.2271 29.9666 68.3869 31.3487 66.8656 31.3487C65.3841 31.3487 64.5339 30.0312 64.5339 28.1868ZM74.1937 32.174C75.4664 32.174 76.242 31.468 76.5602 30.7919H76.6149V32H77.4998V26.8146C77.4998 24.7663 75.9586 24.2592 74.7903 24.2592C73.622 24.2592 72.4189 24.7216 71.9018 25.9695L72.742 26.2727C73.0204 25.6165 73.7115 25.0547 74.8152 25.0547C75.9735 25.0547 76.6149 25.6911 76.6149 26.7351V26.9141C76.6149 27.4908 75.899 27.5007 74.6163 27.6598C72.8912 27.8736 71.6831 28.3558 71.6831 29.8672C71.6831 31.3388 72.8066 32.174 74.1937 32.174ZM74.313 31.3636C73.3137 31.3636 72.568 30.8317 72.568 29.907C72.568 28.9822 73.3237 28.5945 74.6163 28.4354C75.2427 28.3608 76.3564 28.2216 76.6149 27.968V29.0717C76.6149 30.3246 75.725 31.3636 74.313 31.3636ZM81.0968 32H82.0911L84.4526 23.3643H84.5172L86.8787 32H87.873L90.6621 21.8182H89.7125L87.4057 30.5732H87.3262L85.0194 21.8182H83.9455L81.6387 30.5732H81.5591L79.2523 21.8182H78.3077L81.0968 32ZM94.535 32.1591C96.0662 32.1591 97.0953 31.3288 97.4434 30.3693L96.6032 30.0959C96.3098 30.782 95.6188 31.3487 94.535 31.3487C92.9739 31.3487 91.9846 30.2102 91.9448 28.4453H97.6323V28.0078C97.6323 25.4574 96.0563 24.2592 94.4007 24.2592C92.4221 24.2592 91.0549 25.9148 91.0549 28.2266C91.0549 30.5433 92.3972 32.1591 94.535 32.1591ZM91.9498 27.6648C92.0442 26.2429 93.0037 25.0646 94.4007 25.0646C95.7679 25.0646 96.7275 26.1932 96.7275 27.6648H91.9498ZM99.7663 32H100.626V30.5831H100.736C101.044 31.2841 101.69 32.1591 103.082 32.1591C104.957 32.1591 106.224 30.5732 106.224 28.2017C106.224 25.8501 104.952 24.2592 103.067 24.2592C101.67 24.2592 101.039 25.1342 100.736 25.8203H100.656V21.8182H99.7663V32ZM100.641 28.1868C100.641 26.3572 101.482 25.0646 102.973 25.0646C104.504 25.0646 105.335 26.4268 105.335 28.1868C105.335 29.9666 104.494 31.3487 102.973 31.3487C101.491 31.3487 100.641 30.0312 100.641 28.1868Z" fill="#F4F4F4"/>
<g clip-path="url(#clip0)">
<path d="M1.97168 24.1735L5.81349 30.9942L7.75699 27.5462L3.90953 20.7256L1.97168 24.1735Z" fill="#F4F4F4"/>
<path d="M20.0113 20.7258L18.0678 17.2837L14.226 24.1044L16.1638 27.5465L20.0113 20.7258Z" fill="#F4F4F4"/>
<path d="M11.9604 20.0894L10.0226 23.5373L14.226 30.9943L16.1638 27.5464L11.9604 20.0894Z" fill="#F4F4F4"/>
<path d="M0.0281982 20.7255L1.9717 24.1734L10.0225 9.89576L8.07904 6.45361L0.0281982 20.7255Z" fill="#F4F4F4"/>
<path d="M11.9604 20.0896L10.0225 16.6475L5.81348 24.1045L7.75698 27.5466L11.9604 20.0896Z" fill="#F4F4F4"/>
<path d="M18.0678 17.2835L10.0226 3.00586L8.0791 6.45379L10.0226 9.89594L16.1299 20.7257L18.0678 17.2835Z" fill="#F4F4F4"/>
</g>
<defs>
<clipPath id="clip0">
<rect width="20" height="28" fill="white" transform="translate(0 3)"/>
</clipPath>
</defs>
</svg>
